<svg id="Layer_1" data-name="Layer 1" xmlns="http://www.w3.org/2000/svg" viewBox="0 0 365.72 137.64"><defs><style>.cls-1{fill:#231f20;}.cls-2{fill:#1ea4de;}.cls-3{fill:#fff;}.cls-4{fill:#c0cdd2;}.cls-5{fill:#9f4b24;}.cls-6{fill:#80469b;}.cls-7{fill:#124b9c;}.cls-8{fill:#abd037;}.cls-9{fill:#f68521;}.cls-10{fill:#ed2c2d;}.cls-11{fill:#5fba47;}.cls-12{fill:#f7bd19;}</style></defs><path class="cls-1" d="M139.09,117.24l6.14-8.38c3.65,3,7.81,5,12.16,5,3.07,0,4.67-1.34,4.67-3.26v-.07c0-1.79-1.34-2.88-6.59-4.73-8.45-2.88-14.4-5.95-14.4-14.08v-.19c0-8.13,6.21-13.83,16-13.83a24.53,24.53,0,0,1,16,5.44l-5.82,8.58c-3.07-2.37-6.79-4.1-10.43-4.1-2.63,0-4.1,1.28-4.1,3v.06c0,2,1.41,3,7.1,5.12,8.51,2.75,13.83,6.21,13.83,13.82v.13c0,8.71-6.72,14.08-16.32,14.08A27.29,27.29,0,0,1,139.09,117.24Z" transform="translate(-33.14 -39.18)"/><path class="cls-1" d="M177.62,78.39h11.52V96.12l12.35-17.73h13.24L200.85,97.46l14.33,25.73H201.74l-9-16.32-3.58,4.67v11.65H177.62Z" transform="translate(-33.14 -39.18)"/><path class="cls-1" d="M231.63,106.42l-14.4-28H230l7.48,16.19L245,78.39h12.54l-14.4,27.91v16.89H231.63Z" transform="translate(-33.14 -39.18)"/><path class="cls-1" d="M260.43,78.39H272v34.43h17.6v10.37H260.43Z" transform="translate(-33.14 -39.18)"/><path class="cls-1" d="M293.65,78.39h11.52v44.8H293.65Z" transform="translate(-33.14 -39.18)"/><path class="cls-1" d="M309.84,78.39h10.81l14.91,22.53V78.39h11.33v44.8H336.65L321.16,99.7v23.49H309.84Z" transform="translate(-33.14 -39.18)"/><path class="cls-1" d="M351.56,78.39h30.85V88.51H363v7.35h17.53v9.54H363v7.68h19.71v10.11H351.56Z" transform="translate(-33.14 -39.18)"/><path class="cls-2" d="M148.91,141.92a3.31,3.31,0,0,0-.18.93c0,.28.13.42.38.42s.72-.55,1.09-1.65l.78.25c-.63,2-1.51,2.73-2.51,2.73a1.29,1.29,0,0,1-1.34-1.44,2.49,2.49,0,0,1,0-.36l-.12-.05a2.91,2.91,0,0,1-2.48,1.85c-1.4,0-2.17-1.16-2.17-2.6a5.78,5.78,0,0,1,1.55-4,3.63,3.63,0,0,1,2.55-1.24,1.58,1.58,0,0,1,1.58,1.37l.33-1.25h1.86Zm-1.26-2.81c0-.85-.31-1.31-.88-1.31-1.45,0-2.41,2.71-2.41,4,0,1,.34,1.45.94,1.45C146.63,143.29,147.65,140.43,147.65,139.11Z" transform="translate(-33.14 -39.18)"/><path class="cls-2" d="M159.16,143.27c.35,0,.69-.52,1.13-1.65l.77.25c-.66,2-1.57,2.73-2.5,2.73a1.38,1.38,0,0,1-1.45-1.52c0-1.64,1.07-3.25,1.07-4.36,0-.38-.16-.54-.44-.54-.75,0-2.15,1.24-3.46,6.25h-2l1.41-5.29c.24-.93.19-1.19-.1-1.19s-.8.7-1.28,1.72l-.76-.33c.7-1.63,1.52-2.58,2.61-2.58.7,0,1.19.51,1.19,1.52a6.07,6.07,0,0,1-.34,1.81l.11,0c1.08-2.3,2.29-3.4,3.45-3.4a1.52,1.52,0,0,1,1.48,1.7c0,1.39-1.2,3.48-1.2,4.47C158.89,143.16,159,143.27,159.16,143.27Z" transform="translate(-33.14 -39.18)"/><path class="cls-2" d="M171.13,133.43a4.42,4.42,0,0,1,4.55,4.72c0,3.15-2.36,6.54-6,6.54a4.43,4.43,0,0,1-4.57-4.71C165.12,136.82,167.49,133.43,171.13,133.43Zm-3.82,7.26c0,1.9.93,2.81,2.46,2.81,2.67,0,3.74-4,3.74-6.07,0-1.9-.94-2.81-2.46-2.81C168.37,134.62,167.31,138.59,167.31,140.69Z" transform="translate(-33.14 -39.18)"/><path class="cls-2" d="M178.21,138.1c-.37,0-.67.47-1.19,1.57l-.77-.33c.79-1.8,1.56-2.58,2.58-2.58.74,0,1.23.54,1.23,1.47,0,.11,0,.26,0,.41l.13.05a3,3,0,0,1,2.51-1.95c1.37,0,2.16,1.13,2.16,2.65,0,2.63-1.82,5.06-3.82,5.06a2,2,0,0,1-1.87-1.09l-.65,2.43H180L179.7,147h-4.52l.32-1.21h1.11l1.73-6.47C178.59,138.41,178.51,138.1,178.21,138.1Zm1.33,4c0,.8.34,1.36,1.06,1.36,1.45,0,2.27-2.75,2.27-4,0-.91-.3-1.38-.9-1.38C180.66,138,179.54,140.64,179.54,142.08Z" transform="translate(-33.14 -39.18)"/><path class="cls-2" d="M187.72,141.36a2.48,2.48,0,0,0,0,.38c0,1.35.7,1.78,1.52,1.78a3,3,0,0,0,2.28-1.5l.69.49a4.14,4.14,0,0,1-3.58,2.09,2.77,2.77,0,0,1-2.85-3,5,5,0,0,1,4.73-4.88c1.4,0,2.19.7,2.19,1.7C192.68,139.91,191.14,141.17,187.72,141.36Zm.14-.76c2.27-.25,3.1-1.13,3.1-2.14a.74.74,0,0,0-.75-.82C189.07,137.64,188.2,139.19,187.86,140.6Z" transform="translate(-33.14 -39.18)"/><path class="cls-2" d="M201.09,143.27c.34,0,.68-.52,1.12-1.65l.77.25c-.65,2-1.57,2.73-2.5,2.73a1.38,1.38,0,0,1-1.45-1.52c0-1.64,1.08-3.25,1.08-4.36,0-.38-.17-.54-.44-.54-.76,0-2.16,1.24-3.47,6.25h-2l1.41-5.29c.24-.93.19-1.19-.1-1.19s-.8.7-1.27,1.72l-.77-.33c.7-1.63,1.52-2.58,2.61-2.58.7,0,1.19.51,1.19,1.52a5.77,5.77,0,0,1-.34,1.81l.12,0c1.07-2.3,2.28-3.4,3.44-3.4a1.53,1.53,0,0,1,1.49,1.7c0,1.39-1.21,3.48-1.21,4.47C200.81,143.16,200.91,143.27,201.09,143.27Z" transform="translate(-33.14 -39.18)"/><path class="cls-2" d="M204.68,140.61h1.16c.31,2,1.45,2.92,2.88,2.92a1.83,1.83,0,0,0,2.05-1.66c0-1-1.08-1.39-2.24-1.93-1.36-.6-2.84-1.32-2.84-3.05a3.67,3.67,0,0,1,3.82-3.46,3.37,3.37,0,0,1,2.77,1.24l.67-1.19h1.23l-1,3.87h-1.15c-.34-2-1.16-2.78-2.56-2.78a1.71,1.71,0,0,0-1.81,1.62c0,1,1.11,1.47,2.28,2,1.34.57,2.78,1.26,2.78,3a3.75,3.75,0,0,1-4,3.54,3.82,3.82,0,0,1-3.1-1.3l-.72,1.25H203.7Z" transform="translate(-33.14 -39.18)"/><path class="cls-2" d="M218.11,138.08l-1,3.58a4.75,4.75,0,0,0-.19,1c0,.44.22.59.57.59.58,0,1.08-.72,1.53-1.77l.79.26c-.8,2.32-2.06,2.88-2.94,2.88-1.08,0-1.85-.54-1.85-1.65a7.46,7.46,0,0,1,.3-1.62l.88-3.25h-1.44l.26-1h1.44l.54-2,1.94-.22-.59,2.18h2.32l-.26,1Z" transform="translate(-33.14 -39.18)"/><path class="cls-2" d="M227.63,141.92a3.31,3.31,0,0,0-.18.93c0,.28.13.42.38.42s.71-.55,1.09-1.65l.78.25c-.63,2-1.52,2.73-2.51,2.73a1.29,1.29,0,0,1-1.34-1.44,2.49,2.49,0,0,1,0-.36l-.12-.05a2.91,2.91,0,0,1-2.48,1.85c-1.4,0-2.17-1.16-2.17-2.6a5.78,5.78,0,0,1,1.55-4,3.63,3.63,0,0,1,2.55-1.24,1.58,1.58,0,0,1,1.58,1.37l.33-1.25H229Zm-1.26-2.81c0-.85-.31-1.31-.88-1.31-1.45,0-2.42,2.71-2.42,4,0,1,.35,1.45,1,1.45C225.34,143.29,226.37,140.43,226.37,139.11Z" transform="translate(-33.14 -39.18)"/><path class="cls-2" d="M237.18,138.67a1.29,1.29,0,0,1-1.14,1.4.89.89,0,0,1-1-.88,1.39,1.39,0,0,1,.67-1.11,1,1,0,0,0-.9-.41c-1.63,0-2.59,2.5-2.59,3.92s.75,1.85,1.48,1.85,1.47-.54,2.13-1.55l.7.47a3.74,3.74,0,0,1-3.27,2.24,2.86,2.86,0,0,1-3-3,4.91,4.91,0,0,1,4.52-4.85C236.18,136.74,237.18,137.51,237.18,138.67Z" transform="translate(-33.14 -39.18)"/><path class="cls-2" d="M244.1,143.27c.36,0,.67-.52,1.09-1.65l.77.25c-.62,2-1.47,2.73-2.41,2.73a1.48,1.48,0,0,1-1.52-1.67c0-.46.18-1.11.18-1.47,0-.6-.26-.75-1.46-.75h0l-1,3.72h-1.84l2.65-10h-1.36l.33-1.28h3.25l-1.83,6.8H241c.86,0,1.22-.49,1.94-1.69.54-.88,1.08-1.55,2-1.55a1.11,1.11,0,0,1,1.21,1.2,1.27,1.27,0,0,1-1.11,1.37.85.85,0,0,1-.77-1.24c-.23,0-.47.32-.85.94a2.48,2.48,0,0,1-1.07,1.21c1.16.1,1.53.6,1.53,1.37,0,.48-.13.95-.13,1.24S243.92,143.27,244.1,143.27Z" transform="translate(-33.14 -39.18)"/><path class="cls-2" d="M253,140.14c0-3.28,2.42-6.71,6-6.71a3.33,3.33,0,0,1,2.92,1.32l.67-1.27h1.26l-1.05,4.24h-1.22c-.17-2.35-1.19-3.1-2.52-3.1-2.89,0-3.88,3.89-3.88,5.68,0,2.17,1.11,3.09,2.53,3.09,1.73,0,2.74-1.31,3.56-3.23l1.16.4c-.82,2.29-2.34,4.13-5,4.13C254.52,144.69,253,142.78,253,140.14Z" transform="translate(-33.14 -39.18)"/><path class="cls-2" d="M270.94,139.89a4.63,4.63,0,0,1-4.31,4.71,3,3,0,0,1-3.1-3.17,4.61,4.61,0,0,1,4.31-4.69A3,3,0,0,1,270.94,139.89Zm-3.09-2.25c-1.51,0-2.38,3-2.38,4.56,0,1,.44,1.48,1.14,1.48,1.52,0,2.39-3,2.39-4.55C269,138.08,268.55,137.64,267.85,137.64Z" transform="translate(-33.14 -39.18)"/><path class="cls-2" d="M281.55,143.08c0-1.64,1.08-3.25,1.08-4.36,0-.38-.16-.54-.44-.54-.72,0-2.14,1.24-3.45,6.25h-1.92l1.14-4.31a4.93,4.93,0,0,0,.23-1.24c0-.39-.13-.7-.49-.7-.75,0-2.16,1.24-3.46,6.25h-2l1.4-5.29c.25-.93.2-1.19-.1-1.19s-.8.7-1.27,1.72l-.77-.33c.7-1.63,1.52-2.58,2.61-2.58.71,0,1.2.51,1.2,1.52a5.83,5.83,0,0,1-.35,1.81l.12,0c1.08-2.3,2.28-3.4,3.39-3.4.9,0,1.37.61,1.37,1.59a6.13,6.13,0,0,1-.37,1.76l.11,0c1.08-2.3,2.29-3.4,3.45-3.4a1.52,1.52,0,0,1,1.47,1.7c0,1.39-1.21,3.48-1.21,4.47,0,.25.1.36.28.36.34,0,.68-.52,1.12-1.65l.77.25c-.65,2-1.57,2.73-2.5,2.73A1.38,1.38,0,0,1,281.55,143.08Z" transform="translate(-33.14 -39.18)"/><path class="cls-2" d="M295.87,143.08c0-1.64,1.08-3.25,1.08-4.36,0-.38-.17-.54-.45-.54-.71,0-2.13,1.24-3.44,6.25h-1.93l1.15-4.31a5.31,5.31,0,0,0,.22-1.24c0-.39-.13-.7-.49-.7-.75,0-2.15,1.24-3.46,6.25h-2l1.41-5.29c.24-.93.19-1.19-.1-1.19s-.8.7-1.27,1.72l-.77-.33c.7-1.63,1.52-2.58,2.61-2.58.7,0,1.19.51,1.19,1.52a5.77,5.77,0,0,1-.34,1.81l.11,0c1.08-2.3,2.29-3.4,3.4-3.4.9,0,1.37.61,1.37,1.59a6.13,6.13,0,0,1-.37,1.76l.11,0c1.08-2.3,2.29-3.4,3.45-3.4a1.53,1.53,0,0,1,1.47,1.7c0,1.39-1.21,3.48-1.21,4.47,0,.25.1.36.27.36.35,0,.69-.52,1.13-1.65l.77.25c-.65,2-1.57,2.73-2.5,2.73A1.38,1.38,0,0,1,295.87,143.08Z" transform="translate(-33.14 -39.18)"/><path class="cls-2" d="M305.91,143.06a6.63,6.63,0,0,1,.36-1.86l-.12,0c-1.08,2.37-2.22,3.45-3.39,3.45a1.54,1.54,0,0,1-1.49-1.72c0-1.37,1.16-3.54,1.16-4.47,0-.23-.1-.34-.25-.34-.34,0-.62.35-1.2,1.58l-.77-.33c.67-1.61,1.53-2.58,2.66-2.58a1.3,1.3,0,0,1,1.37,1.49c0,1.52-1.08,3.25-1.08,4.29,0,.46.18.64.46.64.74,0,2.09-1.21,3.43-6.3h2l-1.34,5.06a3.44,3.44,0,0,0-.18.93c0,.28.15.42.38.42s.72-.55,1.09-1.65l.78.25c-.63,2-1.51,2.73-2.44,2.73S305.91,144.12,305.91,143.06Z" transform="translate(-33.14 -39.18)"/><path class="cls-2" d="M317.55,143.27c.34,0,.68-.52,1.12-1.65l.77.25c-.65,2-1.57,2.73-2.5,2.73a1.38,1.38,0,0,1-1.45-1.52c0-1.64,1.08-3.25,1.08-4.36,0-.38-.17-.54-.44-.54-.75,0-2.16,1.24-3.46,6.25h-2l1.4-5.29c.24-.93.2-1.19-.1-1.19s-.8.7-1.27,1.72l-.77-.33c.7-1.63,1.52-2.58,2.61-2.58.71,0,1.2.51,1.2,1.52a5.83,5.83,0,0,1-.35,1.81l.12,0c1.07-2.3,2.28-3.4,3.44-3.4a1.52,1.52,0,0,1,1.49,1.7c0,1.39-1.21,3.48-1.21,4.47C317.27,143.16,317.37,143.27,317.55,143.27Z" transform="translate(-33.14 -39.18)"/><path class="cls-2" d="M322.77,142.88c0,.28.11.39.33.39s.67-.44,1.16-1.65l.76.25c-.63,1.93-1.55,2.73-2.59,2.73a1.41,1.41,0,0,1-1.47-1.54c0-1.55,1.35-3.74,1.35-4.75,0-.26-.09-.36-.24-.36-.46,0-.87.7-1.32,1.72l-.79-.33c.7-1.63,1.57-2.6,2.68-2.6a1.46,1.46,0,0,1,1.45,1.65C324.09,139.67,322.77,141.94,322.77,142.88Zm.78-7.28a1,1,0,0,1-1-1,1.42,1.42,0,0,1,1.37-1.44,1,1,0,0,1,1,1A1.45,1.45,0,0,1,323.55,135.6Z" transform="translate(-33.14 -39.18)"/><path class="cls-2" d="M329.32,138.08l-1,3.58a4.3,4.3,0,0,0-.2,1c0,.44.23.59.57.59.59,0,1.08-.72,1.54-1.77l.78.26c-.8,2.32-2.06,2.88-2.94,2.88-1.08,0-1.84-.54-1.84-1.65a8.1,8.1,0,0,1,.29-1.62l.88-3.25H326l.26-1h1.43l.54-2,1.95-.22-.59,2.18h2.32l-.26,1Z" transform="translate(-33.14 -39.18)"/><path class="cls-2" d="M335.75,138.16c0,1.51-.95,3-.95,3.92,0,.41.18.57.54.57.87,0,2-1,3.27-5.79h1.82l-1.5,6.3c-.7,3-2.35,4.05-4.39,4.05-1.14,0-2.51-.31-2.51-1.52a1.15,1.15,0,0,1,1.12-1.17.88.88,0,0,1,1,1,1.1,1.1,0,0,1-.33.7,2.22,2.22,0,0,0,.75.12c1.28,0,2.14-1,2.7-3.3l.33-1.29-.1-.05c-.95,1.73-2,2.37-2.91,2.37a1.55,1.55,0,0,1-1.62-1.7c0-1.26,1.05-3,1.05-4,0-.21-.1-.34-.25-.34-.4,0-.8.66-1.24,1.6l-.76-.33c.71-1.63,1.61-2.6,2.69-2.6A1.29,1.29,0,0,1,335.75,138.16Z" transform="translate(-33.14 -39.18)"/><path class="cls-2" d="M347,143.21h1.78l-.27,1.22H343l.28-1.22h1.65l2-8.3H345.3l.31-1.22h4.52c3,0,4.08,1.21,4.08,2.74s-1.12,3.71-5.17,3.71h-1.31ZM349.1,139a2.49,2.49,0,0,0,2.83-2.56c0-.95-.57-1.52-2.19-1.52H349L348,139Z" transform="translate(-33.14 -39.18)"/><path class="cls-2" d="M356.76,139.14c.24-.93.19-1.19-.1-1.19s-.8.7-1.27,1.72l-.77-.33c.7-1.63,1.52-2.58,2.61-2.58.7,0,1.19.51,1.19,1.52a5.82,5.82,0,0,1-.32,1.76l.13.05c.94-2.15,1.73-3.35,2.87-3.35a1.15,1.15,0,0,1,1.19,1.24,1.34,1.34,0,0,1-1.17,1.47.93.93,0,0,1-1-1.06c-.47.2-1.65,1.59-2.83,6h-2Z" transform="translate(-33.14 -39.18)"/><path class="cls-2" d="M370.05,139.89a4.63,4.63,0,0,1-4.31,4.71,3,3,0,0,1-3.11-3.17,4.62,4.62,0,0,1,4.32-4.69A3,3,0,0,1,370.05,139.89ZM367,137.64c-1.52,0-2.38,3-2.38,4.56,0,1,.44,1.48,1.14,1.48,1.52,0,2.38-3,2.38-4.55C368.1,138.08,367.66,137.64,367,137.64Z" transform="translate(-33.14 -39.18)"/><path class="cls-2" d="M375.37,139.68l-1,3.9c-.69,2.6-2,3.63-3.46,3.63-1.14,0-1.63-.54-1.63-1.16a1.12,1.12,0,0,1,1.07-1.16.81.81,0,0,1,.85.83,1.3,1.3,0,0,1-.26.79c.7,0,1-.41,1.59-2.75l1.07-4.13a6.59,6.59,0,0,0,.25-1.3c0-.3-.13-.38-.28-.38-.39,0-.82.7-1.29,1.72l-.77-.33c.7-1.63,1.55-2.6,2.7-2.6a1.43,1.43,0,0,1,1.42,1.55A5.47,5.47,0,0,1,375.37,139.68Zm-.31-4.08a1,1,0,0,1-1-1,1.42,1.42,0,0,1,1.37-1.44,1,1,0,0,1,1,1A1.45,1.45,0,0,1,375.06,135.6Z" transform="translate(-33.14 -39.18)"/><path class="cls-2" d="M378.89,141.36c0,.13,0,.26,0,.38,0,1.35.7,1.78,1.52,1.78a3,3,0,0,0,2.28-1.5l.69.49a4.14,4.14,0,0,1-3.58,2.09,2.77,2.77,0,0,1-2.85-3,5,5,0,0,1,4.73-4.88c1.4,0,2.19.7,2.19,1.7C383.86,139.91,382.32,141.17,378.89,141.36Zm.15-.76c2.27-.25,3.1-1.13,3.1-2.14a.74.74,0,0,0-.75-.82C380.25,137.64,379.38,139.19,379,140.6Z" transform="translate(-33.14 -39.18)"/><path class="cls-2" d="M391.73,138.67a1.29,1.29,0,0,1-1.15,1.4.89.89,0,0,1-1-.88,1.39,1.39,0,0,1,.67-1.11,1,1,0,0,0-.9-.41c-1.63,0-2.59,2.5-2.59,3.92s.75,1.85,1.48,1.85,1.47-.54,2.12-1.55l.71.47a3.75,3.75,0,0,1-3.27,2.24,2.86,2.86,0,0,1-3-3,4.9,4.9,0,0,1,4.52-4.85C390.73,136.74,391.73,137.51,391.73,138.67Z" transform="translate(-33.14 -39.18)"/><path class="cls-2" d="M396.28,138.08l-1,3.58a4.75,4.75,0,0,0-.19,1c0,.44.22.59.57.59.58,0,1.07-.72,1.53-1.77l.79.26c-.8,2.32-2.06,2.88-2.94,2.88-1.08,0-1.85-.54-1.85-1.65a7.46,7.46,0,0,1,.3-1.62l.88-3.25H393l.26-1h1.44l.54-2,1.94-.22-.59,2.18h2.32l-.26,1Z" transform="translate(-33.14 -39.18)"/><path class="cls-3" d="M53.6,77c-1.42,2-2.75,3.31-5,3.31h-4L42,82.1c-4.49,0-6.65-3-5.25-4.46l8.9-8.9A9.23,9.23,0,0,1,52.2,66h0a9.23,9.23,0,0,1,8.23,5.06h0a38.63,38.63,0,0,1-.27,26.13l-2.36,6.36a6.25,6.25,0,0,0,8.23,8l21.51-8.83A13.6,13.6,0,0,1,106.27,115a10.56,10.56,0,0,1-.13,1.91l-1.55,9.31a40.75,40.75,0,0,1,8,12.38l-.39,0L96.92,137a27.92,27.92,0,0,1-17.63-8.68L79,128s-5.29,7.45-17.3,7.93l-3.13,15.62L52.7,138.67a7.46,7.46,0,0,0-5-4.15c-2.72-.65-6.73-2.71-10.41-8.85C31.25,115.64,38.76,96.92,53.6,77Z" transform="translate(-33.14 -39.18)"/><path class="cls-4" d="M40.7,76.75l0,.46a1.45,1.45,0,0,1-1.09,1.56L39,79l3.6.61-1.4,1.1L37.45,79Z" transform="translate(-33.14 -39.18)"/><path class="cls-4" d="M55.49,78.41c-5.78,6.88-12.92,21.72-13.65,32.71s5.49,15.57,8.79,17.4,3.75,6.15,7.28,16.17c0,0-5.27-7.56-8.38-9s-12.46-6.77-13.74-11.53S35.24,105.81,40,97.75,53.6,77,53.6,77Z" transform="translate(-33.14 -39.18)"/><polygon class="cls-5" points="70.35 83.5 65.97 97.56 79.08 99.36 70.35 83.5"/><path class="cls-6" d="M103.35,112.78,92.57,123.22a8.31,8.31,0,0,0-2.32,4.15l-1,4.69a1.07,1.07,0,0,0,.82,1.28l4.84,3.1a1.12,1.12,0,0,0,1.06-.36l9.25-22.48c.15-.18,0,.23,0,0h0A1.08,1.08,0,0,0,103.35,112.78Z" transform="translate(-33.14 -39.18)"/><polygon class="cls-4" points="28.58 96.75 28.63 100.5 35.66 111.39 37.02 95.74 28.58 96.75"/><path class="cls-7" d="M86.44,114.28l-4.69,6.65a2.8,2.8,0,0,0,.34,3.63l4,3.9a1.08,1.08,0,0,0,1.83-.73l.46-12.79A1.08,1.08,0,0,0,86.44,114.28Z" transform="translate(-33.14 -39.18)"/><path class="cls-8" d="M76.61,109.2l1.1,8.84a1.08,1.08,0,0,0,2,.43l7.74-12.64a1.08,1.08,0,0,0-1.34-1.55l-8.85,3.79A1.08,1.08,0,0,0,76.61,109.2Z" transform="translate(-33.14 -39.18)"/><path class="cls-2" d="M92.11,104.66l-.52,12.42a1.08,1.08,0,0,0,1.86.78l8.61-9.14a1.07,1.07,0,0,0,.11-1.33c-.84-1.27-3.17-3.64-9-3.76A1.07,1.07,0,0,0,92.11,104.66Z" transform="translate(-33.14 -39.18)"/><path class="cls-9" d="M73.06,113.36l-14.18,5.12a1.08,1.08,0,0,0,.13,2.06l15.88,3.59a1.08,1.08,0,0,0,1.3-1.26l-1.71-8.71A1.07,1.07,0,0,0,73.06,113.36Z" transform="translate(-33.14 -39.18)"/><path class="cls-10" d="M63.18,123.57l7.74,2.08a1.07,1.07,0,0,1,.09,2l-6.91,2.48a1.08,1.08,0,0,1-1.43-.82l-.83-4.56A1.08,1.08,0,0,1,63.18,123.57Z" transform="translate(-33.14 -39.18)"/><path class="cls-11" d="M57.88,122.42l-5.35-1.71A1.28,1.28,0,0,0,50.87,122l.23,2.91a1.27,1.27,0,0,0,1.56,1.13l5.13-1.2A1.27,1.27,0,0,0,57.88,122.42Z" transform="translate(-33.14 -39.18)"/><path class="cls-12" d="M52,117.17l-5.36-1.56a1,1,0,0,1-.4-1.71L49.42,111a1,1,0,0,1,1.59.3l2.17,4.5A1,1,0,0,1,52,117.17Z" transform="translate(-33.14 -39.18)"/><path class="cls-1" d="M47.56,72.37a2,2,0,0,0-1.41,1.4.73.73,0,0,0,.91.91l2.17-.63a.73.73,0,0,0,.3-1.23A2.05,2.05,0,0,0,47.56,72.37Z" transform="translate(-33.14 -39.18)"/><path class="cls-1" d="M118.78,153.63c-.92-7.93-3.72-19.12-11.75-28l1.37-8.25a13,13,0,0,0,.16-2.31,15.35,15.35,0,0,0-6.63-12.48,4.73,4.73,0,0,0,3.52-7.31.8.8,0,0,0-1.24-.1l-5.61,5.61a15.88,15.88,0,0,0-11.76.06l-21.51,8.82A4.08,4.08,0,0,1,60,104.47l2.36-6.37a40.91,40.91,0,0,0,.28-27.59,2,2,0,0,0-.11-.26,11.46,11.46,0,0,0-2.06-2.87c.7-.21,1.47-.41,2.11-.57,5.08-1.3,12.21-3.33,13.53-12.48.35-.92.26-5.25,4.13-6.86a.64.64,0,0,0,.37-.77l-.11-.43a.66.66,0,0,0-.93-.42,16.29,16.29,0,0,0-2.06,1c1.12-4.19,2.37-5.07,4.23-6.09A.66.66,0,0,0,82,40l-.21-.4a.65.65,0,0,0-.83-.33c-1.21.47-3.86,2-6,6.25a12.59,12.59,0,0,0-1.33-3.31.66.66,0,0,0-.93-.21l-.44.29a.65.65,0,0,0-.24.82c1.11,2.47.9,7.72.47,10.68-.69,4.34-3.42,6.34-6.58,7.55a10.34,10.34,0,0,0,0-7.25.61.61,0,0,0-.83-.37l-.52.23a.61.61,0,0,0-.36.67c.59,3.31-.26,7.53-2.76,8l-.06,0a15.92,15.92,0,0,0-5.19,2c-.28-.1-.57-.19-.86-.27l.43-.26a6.22,6.22,0,0,0,2.64-7.6.46.46,0,0,0-.8-.1L52.23,64a8.51,8.51,0,0,0-.88,0l4-5.57a.46.46,0,0,0-.36-.72h0a6.23,6.23,0,0,0-6.32,5l-.41,2a11.41,11.41,0,0,0-4,2.59l-8.9,8.9a3.72,3.72,0,0,0-.74,4.13,6.49,6.49,0,0,0,4,3.42c-.29.13-.57.25-.86.36A.77.77,0,0,0,38,85.62a11.78,11.78,0,0,0,7.4-3h1.76A101.36,101.36,0,0,0,35.7,104.44c-3.36,9.49-3.41,17-.16,22.46,4.07,6.79,8.64,9.1,11.76,9.85a5.24,5.24,0,0,1,3.56,2.94l5.66,12.38a69.28,69.28,0,0,1-4,17.66A6,6,0,0,1,47,173.86a4,4,0,0,0-2.7,1.44l-.5.62a.55.55,0,0,0,.43.9h4.89a1.1,1.1,0,0,0,1-.65c.35-.79,1.29-2.08,3.9-2.08a2.17,2.17,0,0,0,2-1.36,72,72,0,0,0,4.83-20.79l1.46-7.3,4.48,7.55a69.63,69.63,0,0,1-4,17.55,6,6,0,0,1-5.55,4.12,4,4,0,0,0-2.7,1.44l-.5.62a.55.55,0,0,0,.43.9h4.89a1.13,1.13,0,0,0,1-.65c.35-.79,1.27-2.08,3.87-2.08a2.16,2.16,0,0,0,2-1.36,71.4,71.4,0,0,0,4.84-20.89l1.75-16.25a23.76,23.76,0,0,0,6.17-4.21A46.1,46.1,0,0,0,100,144.43c2.34,12.29-2,21-4.2,25.22-1.38,2.78-3,3.92-5.68,4.21a4,4,0,0,0-2.69,1.44l-.5.62a.55.55,0,0,0,.43.9h4.89a1.12,1.12,0,0,0,1-.65c.35-.79,1.31-2,3.92-2A2.05,2.05,0,0,0,99,172.83c.15-.32.36-.74.6-1.22,2.25-4.44,7.48-14.8,4.35-29.15V140l7.24.74a54.48,54.48,0,0,1,3.26,13.41,53.79,53.79,0,0,1-.26,15.56c-.72,2.74-2.86,3.88-5.52,4.17A4,4,0,0,0,106,175.3l-.5.62a.55.55,0,0,0,.42.9h4.89a1.13,1.13,0,0,0,1-.65c.35-.79,1.35-2.08,4-2.08a2.14,2.14,0,0,0,2-1.26C118.86,170.48,119.82,162.49,118.78,153.63ZM67.56,145l-4-6.68,0-.19a29.4,29.4,0,0,0,4.75-.85Zm32.09-5.34v.15l-.07,0Zm-2.39-4.7a25.83,25.83,0,0,1-16.27-8l-.26-.29A2.21,2.21,0,0,0,79,126a2.18,2.18,0,0,0-1.61.9,15.63,15.63,0,0,1-3.77,3.37,22.7,22.7,0,0,1-11.86,3.67,2.16,2.16,0,0,0-2,1.73l-1.81,9.07-3.11-6.8a9.55,9.55,0,0,0-6.5-5.35c-2.31-.56-5.75-2.37-9-7.87-5-8.41.83-25.43,15.75-45.6l.45-.62h0l0,0A2.17,2.17,0,0,0,52,75.86h0c-.16.2-.31.41-.46.62-1.18,1.52-1.88,1.82-2.8,1.82H44.78a2.17,2.17,0,0,0-1.21.36l-2,1.37a4.19,4.19,0,0,1-2.74-1.1l8.54-8.54a7.05,7.05,0,0,1,11.23,1.69,36.53,36.53,0,0,1-.3,24.52L55.9,103A8.42,8.42,0,0,0,67,113.67l21.5-8.82a11.51,11.51,0,0,1,10.7,1.09,11.11,11.11,0,0,1,5,9.19,8.14,8.14,0,0,1-.1,1.53l-1.54,9.3a.09.09,0,0,0,0,.05,870746358309.23,870746358309.23,0,0,0,0,.22v.21s0,.06,0,.09,0,.08,0,.12,0,.06,0,.09l0,.11a.3.3,0,0,0,0,.1.42.42,0,0,0,0,.1.3.3,0,0,0,0,.1.36.36,0,0,0,0,.09.54.54,0,0,0,0,.11l0,.08.07.09,0,.09a.27.27,0,0,1,.07.08l.08.09,0,0a37.24,37.24,0,0,1,6,8.35Z" transform="translate(-33.14 -39.18)"/></svg>