<svg id="图层_1" data-name="图层 1" xmlns="http://www.w3.org/2000/svg" viewBox="0 0 108.35 169.9"><defs><style>.cls-1{fill:#fff;}.cls-2{fill:#becbd0;}.cls-3{fill:#9a4a23;}.cls-4{fill:#7a4393;}.cls-5{fill:#154892;}.cls-6{fill:#a5c73d;}.cls-7{fill:#2a9ace;}.cls-8{fill:#ec8229;}.cls-9{fill:#de312f;}.cls-10{fill:#5fb248;}.cls-11{fill:#ecb725;}.cls-12{fill:#221f20;}.cls-13{fill:#231815;}</style></defs><path class="cls-1" d="M406.37,215c-1.4,2-2.76,3.32-5,3.32h-4l-2.63,1.77c-4.51,0-6.67-3.07-5.27-4.48l8.93-8.92a9.23,9.23,0,0,1,3-2A9.13,9.13,0,0,1,405,204a9.24,9.24,0,0,1,4.85,1.37,9.35,9.35,0,0,1,3.41,3.7,38.8,38.8,0,0,1-.27,26.21l-2.37,6.38a6.27,6.27,0,0,0-.23,3.56,6.42,6.42,0,0,0,1.76,3.11,6.26,6.26,0,0,0,6.72,1.3l21.57-8.85a13.65,13.65,0,0,1,18.78,12.29,10.38,10.38,0,0,1-.13,1.93l-1.54,9.33a41.3,41.3,0,0,1,8,12.41h-.39l-15.34-1.59a28,28,0,0,1-17.69-8.73l-.27-.27s-5.3,7.46-17.35,7.95l-3.13,15.66-5.9-12.92a7.49,7.49,0,0,0-5-4.18c-2.72-.65-6.74-2.71-10.46-8.88-6-10,1.52-28.8,16.4-48.74" transform="translate(-374.85 -177.08)"/><path class="cls-2" d="M393.43,214.74l.05.45a1.51,1.51,0,0,1-.26,1,1.42,1.42,0,0,1-.85.58l-.62.18,3.62.61L394,218.66,390.19,217Z" transform="translate(-374.85 -177.08)"/><path class="cls-2" d="M408.26,216.4c-5.79,6.9-12.95,21.78-13.69,32.8s5.52,15.61,8.82,17.43,3.76,6.17,7.29,16.22c0,0-5.27-7.58-8.36-9.06s-12.5-6.8-13.78-11.58-.55-18.36,4.22-26.44S406.4,215,406.4,215Z" transform="translate(-374.85 -177.08)"/><polygon class="cls-3" points="81.55 83.71 77.15 97.81 90.3 99.62 81.55 83.71"/><path class="cls-4" d="M456.26,250.86l-10.81,10.46a8.33,8.33,0,0,0-2.33,4.19l-1.05,4.7a1.1,1.1,0,0,0,.15.81,1.15,1.15,0,0,0,.68.48l4.88,3.1a1.1,1.1,0,0,0,.57,0,1,1,0,0,0,.48-.33l9.28-22.54c.15-.18,0,.24,0,0a1.08,1.08,0,0,0-.63-1.07,1.11,1.11,0,0,0-.65-.08,1,1,0,0,0-.57.31" transform="translate(-374.85 -177.08)"/><polygon class="cls-2" points="39.66 97 39.71 100.77 46.76 111.68 48.13 95.99 39.66 97"/><path class="cls-5" d="M439.3,252.37l-4.71,6.69a2.79,2.79,0,0,0,.34,3.64l4,3.92a1.11,1.11,0,0,0,.55.28,1,1,0,0,0,.6-.06,1.06,1.06,0,0,0,.48-.38,1.09,1.09,0,0,0,.2-.58l.46-12.82a1.08,1.08,0,0,0-.18-.66,1,1,0,0,0-.54-.42,1.09,1.09,0,0,0-.69,0,1.18,1.18,0,0,0-.55.41" transform="translate(-374.85 -177.08)"/><path class="cls-6" d="M429.44,247.27l1.11,8.87a1.07,1.07,0,0,0,.84.93A1.11,1.11,0,0,0,432,257a1.07,1.07,0,0,0,.5-.44l7.76-12.67a1.08,1.08,0,0,0-.09-1.29,1.09,1.09,0,0,0-.58-.35,1.06,1.06,0,0,0-.68.07l-8.87,3.81a1,1,0,0,0-.51.45,1.09,1.09,0,0,0-.13.68" transform="translate(-374.85 -177.08)"/><path class="cls-7" d="M445,242.73l-.51,12.44a1.07,1.07,0,0,0,.65,1,1.09,1.09,0,0,0,.64.06,1,1,0,0,0,.57-.31L455,246.8a1.08,1.08,0,0,0,.29-.65,1,1,0,0,0-.18-.69c-.84-1.27-3.18-3.65-9-3.77a1.08,1.08,0,0,0-1.11,1" transform="translate(-374.85 -177.08)"/><path class="cls-8" d="M425.88,251.44l-14.22,5.14a1,1,0,0,0-.56.42,1.1,1.1,0,0,0-.19.68,1.11,1.11,0,0,0,.27.65,1.07,1.07,0,0,0,.61.34l15.93,3.6a1.12,1.12,0,0,0,1-.28,1.18,1.18,0,0,0,.28-.45,1.19,1.19,0,0,0,0-.53l-1.71-8.74a1.16,1.16,0,0,0-.18-.43,1,1,0,0,0-.35-.31,1.1,1.1,0,0,0-.44-.15,1.19,1.19,0,0,0-.46.06" transform="translate(-374.85 -177.08)"/><path class="cls-9" d="M416,261.68l7.76,2.1a1.11,1.11,0,0,1,.56.37,1,1,0,0,1,.23.62,1.07,1.07,0,0,1-.18.65,1.08,1.08,0,0,1-.53.41l-6.93,2.5a1.16,1.16,0,0,1-.45.05,1.05,1.05,0,0,1-.43-.15,1,1,0,0,1-.34-.3,1,1,0,0,1-.17-.42l-.83-4.58a1.06,1.06,0,0,1,0-.53A1.18,1.18,0,0,1,415,262a1.14,1.14,0,0,1,.47-.26,1.18,1.18,0,0,1,.53,0" transform="translate(-374.85 -177.08)"/><path class="cls-10" d="M410.66,260.53l-5.37-1.71a1.29,1.29,0,0,0-1.18.21,1.28,1.28,0,0,0-.37.49,1.16,1.16,0,0,0-.1.61l.23,2.91a1.16,1.16,0,0,0,.15.52,1.29,1.29,0,0,0,.36.41,1.18,1.18,0,0,0,.5.22,1.23,1.23,0,0,0,.54,0l5.15-1.21a1.28,1.28,0,0,0,1-1.19,1.3,1.3,0,0,0-.23-.78,1.34,1.34,0,0,0-.66-.48" transform="translate(-374.85 -177.08)"/><path class="cls-11" d="M404.75,255.27l-5.37-1.56a1,1,0,0,1-.45-.28,1,1,0,0,1-.25-.46,1,1,0,0,1,0-.53A1,1,0,0,1,399,252l3.2-3a.88.88,0,0,1,.41-.23.9.9,0,0,1,.46,0,1,1,0,0,1,.43.19.85.85,0,0,1,.29.36l2.18,4.52a.94.94,0,0,1,.09.57,1,1,0,0,1-.23.53,1.08,1.08,0,0,1-.48.31,1.14,1.14,0,0,1-.58,0" transform="translate(-374.85 -177.08)"/><path class="cls-12" d="M400.31,210.34a2.09,2.09,0,0,0-.87.52,2,2,0,0,0-.53.87.86.86,0,0,0,0,.39.79.79,0,0,0,.54.54.86.86,0,0,0,.39,0L402,212a.82.82,0,0,0,.36-.18.83.83,0,0,0,.2-.34.73.73,0,0,0,0-.39.76.76,0,0,0-.23-.33,2.11,2.11,0,0,0-.94-.48,2,2,0,0,0-1.06,0" transform="translate(-374.85 -177.08)"/><path class="cls-12" d="M471.73,291.83c-.93-7.95-3.73-19.17-11.78-28.09l1.39-8.28a12.65,12.65,0,0,0,.16-2.3,15.38,15.38,0,0,0-6.65-12.55,4.83,4.83,0,0,0,2.27-.82,4.73,4.73,0,0,0,2-4.22,4.68,4.68,0,0,0-.78-2.29.67.67,0,0,0-.26-.24.76.76,0,0,0-.33-.11.83.83,0,0,0-.35,0,1,1,0,0,0-.3.19l-5.65,5.67a15.91,15.91,0,0,0-11.79.06l-21.57,8.85a4.09,4.09,0,0,1-2.32.23,4.18,4.18,0,0,1-2.08-1.08,4.1,4.1,0,0,1-1-4.36l2.37-6.38a41,41,0,0,0,.28-27.68c0-.09-.07-.17-.11-.26a11.36,11.36,0,0,0-2.09-2.87c.69-.22,1.48-.42,2.09-.57,5.1-1.31,12.25-3.35,13.57-12.52.36-.92.26-5.26,4.14-6.88a.63.63,0,0,0,.33-.31.67.67,0,0,0,.05-.46l-.12-.43a.64.64,0,0,0-.15-.25.72.72,0,0,0-.22-.17.71.71,0,0,0-.28-.06.87.87,0,0,0-.28.05,17.81,17.81,0,0,0-2.09,1.06c1.12-4.18,2.38-5.08,4.25-6.11a.67.67,0,0,0,.29-.37.72.72,0,0,0,0-.48l-.21-.4a.7.7,0,0,0-.36-.32.74.74,0,0,0-.25,0h0a.54.54,0,0,0-.22,0c-1.21.47-3.86,1.95-6,6.27a12.92,12.92,0,0,0-1.34-3.32.69.69,0,0,0-.93-.21l-.44.3a.67.67,0,0,0-.28.36.66.66,0,0,0,0,.46c1.11,2.48.9,7.74.48,10.7-.7,4.36-3.43,6.36-6.61,7.58a10.34,10.34,0,0,0,0-7.27.56.56,0,0,0-.13-.22.62.62,0,0,0-.2-.15.74.74,0,0,0-.25-.05.53.53,0,0,0-.25.05l-.53.23a.6.6,0,0,0-.31.28.64.64,0,0,0,0,.41c.6,3.32-.25,7.56-2.79,8.07h-.05a16.25,16.25,0,0,0-5.13,2l-.86-.26.44-.26a6.28,6.28,0,0,0,2.68-7.6.48.48,0,0,0-.14-.2.52.52,0,0,0-.23-.1.4.4,0,0,0-.24,0,.42.42,0,0,0-.19.16L405,202a6.63,6.63,0,0,0-.89,0l4-5.57a.46.46,0,0,0,.06-.23.34.34,0,0,0,0-.22.52.52,0,0,0-.15-.18.44.44,0,0,0-.22-.07,6.25,6.25,0,0,0-6.35,5l-.41,2a11.49,11.49,0,0,0-4,2.59l-8.92,8.93a3.64,3.64,0,0,0-1,1.95,3.75,3.75,0,0,0,.27,2.19,6.45,6.45,0,0,0,4,3.42c-.28.13-.56.26-.86.37a.74.74,0,0,0-.37.35.76.76,0,0,0-.08.51.72.72,0,0,0,.26.44.76.76,0,0,0,.48.19,11.93,11.93,0,0,0,7.43-3H400a102.3,102.3,0,0,0-11.54,21.88c-3.36,9.51-3.41,17.08-.16,22.51,4.09,6.81,8.67,9.13,11.79,9.88a5.15,5.15,0,0,1,2.13,1.06,5.26,5.26,0,0,1,1.45,1.89l5.68,12.41a69.91,69.91,0,0,1-4,17.72,6,6,0,0,1-5.58,4.13,4.06,4.06,0,0,0-2.71,1.45l-.49.59a.5.5,0,0,0-.12.28.52.52,0,0,0,.05.3.59.59,0,0,0,.2.24.61.61,0,0,0,.3.08h4.88a1.17,1.17,0,0,0,.61-.17,1.15,1.15,0,0,0,.42-.48c.35-.79,1.29-2.09,3.9-2.09a2.12,2.12,0,0,0,1.22-.38,2.21,2.21,0,0,0,.8-1,72.26,72.26,0,0,0,4.88-20.84l1.47-7.33,4.49,7.58a69.54,69.54,0,0,1-4,17.6,6,6,0,0,1-5.57,4.12,4.06,4.06,0,0,0-2.71,1.45l-.5.61a.58.58,0,0,0-.12.28.54.54,0,0,0,.05.31.45.45,0,0,0,.2.23.53.53,0,0,0,.3.09h4.88a1.09,1.09,0,0,0,.61-.18,1.12,1.12,0,0,0,.42-.47c.35-.8,1.27-2.09,3.89-2.09a2.16,2.16,0,0,0,1.22-.39,2.13,2.13,0,0,0,.79-1A71.75,71.75,0,0,0,424,290l1.72-16.26a24.35,24.35,0,0,0,6.2-4.19,46.34,46.34,0,0,0,20.91,13.09c2.35,12.32-2.05,21-4.18,25.29-1.39,2.79-3,3.93-5.69,4.18a4.06,4.06,0,0,0-2.71,1.45l-.48.62a.56.56,0,0,0-.13.28.57.57,0,0,0,0,.31.63.63,0,0,0,.2.23.64.64,0,0,0,.3.08h4.88a1.17,1.17,0,0,0,.61-.17,1.15,1.15,0,0,0,.42-.48c.35-.79,1.31-2,3.92-2a1.94,1.94,0,0,0,1.14-.37,2,2,0,0,0,.74-.94c.15-.32.36-.75.61-1.23,2.25-4.46,7.49-14.84,4.35-29.22v-2.5l7.26.75a57.6,57.6,0,0,1,3,29.05c-.69,2.74-2.86,3.89-5.52,4.18a4.06,4.06,0,0,0-2.71,1.45l-.5.61a.5.5,0,0,0-.12.29.52.52,0,0,0,.05.3.57.57,0,0,0,.2.23.55.55,0,0,0,.3.09h4.88a1.17,1.17,0,0,0,.61-.17,1.15,1.15,0,0,0,.42-.48c.34-.79,1.36-2.09,4-2.09a2.21,2.21,0,0,0,1.17-.34,2.29,2.29,0,0,0,.8-.92c1.11-2.34,2.07-10.34,1-19.23m-51.36-8.68-4-6.7.05-.2a28.62,28.62,0,0,0,4.76-.85Zm32.18-5.36v.15h-.07Zm-2.4-4.71a26,26,0,0,1-16.32-8l-.26-.28a2.13,2.13,0,0,0-1.73-.68,2.22,2.22,0,0,0-.91.26,2.17,2.17,0,0,0-.71.64,15.83,15.83,0,0,1-3.78,3.38A22.73,22.73,0,0,1,414.55,272a2.16,2.16,0,0,0-1.33.52,2.22,2.22,0,0,0-.72,1.22l-1.82,9.07L407.57,276a9.57,9.57,0,0,0-6.52-5.36c-2.31-.56-5.77-2.38-9.06-7.88-5.06-8.45.84-25.51,15.79-45.74.16-.2.31-.4.46-.61a2.19,2.19,0,0,0,.29-1.56,2.22,2.22,0,0,0-.85-1.34,2.18,2.18,0,0,0-2.93.34l-.46.63c-1.18,1.52-1.88,1.82-2.79,1.82h-4a2,2,0,0,0-1.2.37l-2.05,1.39a4.18,4.18,0,0,1-2.75-1.1l8.56-8.57a7.09,7.09,0,0,1,11.27,1.7,36.65,36.65,0,0,1-.31,24.58l-2.37,6.38a8.47,8.47,0,0,0,2.05,9,8.45,8.45,0,0,0,9.07,1.74L441.36,243a11.62,11.62,0,0,1,10.73,1.1,11.14,11.14,0,0,1,5.07,9.22,8.75,8.75,0,0,1-.11,1.53l-1.55,9.32v1.1l.05.1,0,.09.05.1,0,.09.07.09.05.09.07.07a.24.24,0,0,0,.08.09v0a37.82,37.82,0,0,1,6,8.37Z" transform="translate(-374.85 -177.08)"/><path class="cls-13" d="M455.13,334.85V347h-3.35V330.43h4.5l6.59,12.32V330.43h3.34V347h-4.33ZM443.65,347V330.43h3.53V347ZM429,330.43h3.53v9.3c0,1.18.09,2,.15,2.35a1.88,1.88,0,0,0,1.08,1.55A8.78,8.78,0,0,0,437,344h3.37V347h-3.74a16.16,16.16,0,0,1-3.83-.3,4.73,4.73,0,0,1-3.47-3.47,14.91,14.91,0,0,1-.3-3.47Zm-12.79,9.29-6.11-9.29h4.12l3.79,6.21,4-6.21h4.18l-6.45,9.43V347h-3.53Zm-19.14-1.11,7-8.18h4.62l-6.9,8.18,6.58,8.36h-4.64Zm.59-8.18V347h-3.52V330.43ZM375.64,347V344h7.56a5.44,5.44,0,0,0,2.43-.36,1.71,1.71,0,0,0,.87-1.57,1.86,1.86,0,0,0-1-1.76,4,4,0,0,0-1.86-.32h-3.07a6.4,6.4,0,0,1-4.05-1,4.37,4.37,0,0,1-1.21-1.62,4.87,4.87,0,0,1-.44-2.07,5.39,5.39,0,0,1,1-3.19,4.21,4.21,0,0,1,3.19-1.62c.5-.05,1.23-.08,2.21-.08h9v2.93h-8.19a10.27,10.27,0,0,0-2.21.15,1.51,1.51,0,0,0-1.12,1.69,1.59,1.59,0,0,0,.94,1.62,5.53,5.53,0,0,0,2.09.28h2.65a10,10,0,0,1,3.05.35,3.84,3.84,0,0,1,2.42,2.08,6.32,6.32,0,0,1,.53,2.57,5.28,5.28,0,0,1-.69,2.69,4,4,0,0,1-2.93,2A18.09,18.09,0,0,1,384,347Z" transform="translate(-374.85 -177.08)"/><path class="cls-13" d="M470.24,337.13h3.52v2.61a15.3,15.3,0,0,0,.16,2.35,1.85,1.85,0,0,0,1.08,1.54,8.46,8.46,0,0,0,3.2.42h5V347h-5.36a16.26,16.26,0,0,1-3.84-.3,4.72,4.72,0,0,1-3.47-3.48,15,15,0,0,1-.29-3.46Z" transform="translate(-374.85 -177.08)"/><path class="cls-13" d="M470.24,340.28h3.52v-2.61a15.3,15.3,0,0,1,.16-2.35,1.88,1.88,0,0,1,1.08-1.55,8.72,8.72,0,0,1,3.2-.41h5v-2.93h-5.36a16.26,16.26,0,0,0-3.84.3,4.73,4.73,0,0,0-3.47,3.47,15.12,15.12,0,0,0-.29,3.47Z" transform="translate(-374.85 -177.08)"/><rect class="cls-13" x="98.42" y="160.2" width="8.97" height="2.92"/></svg>