<svg xmlns="http://www.w3.org/2000/svg" viewBox="0 0 377.91 604.19"><defs><style>.cls-1{fill:#fdfdfd;}.cls-2{fill:#c0cdd2;}.cls-3{fill:#9f4a23;}.cls-4{fill:#9300d1;}.cls-5{fill:#00479f;}.cls-6{fill:#acd036;}.cls-7{fill:#18a4dd;}.cls-8{fill:#f5851f;}.cls-9{fill:#ed272b;}.cls-10{fill:#5eba47;}.cls-11{fill:#f9bd13;}.cls-12{fill:#231f20;}</style></defs><g id="RGB"><path class="cls-1" d="M346.26,275.05c-6.22,8.75-12.06,14.53-21.92,14.53H307l-11.55,7.74c-19.7,0-29.21-13.41-23-19.59l39.07-39.07a40.54,40.54,0,0,1,28.64-11.86h0A40.51,40.51,0,0,1,376.25,249h0a169.62,169.62,0,0,1-1.18,114.7l-10.36,27.93c-8.31,22.4,14,44,36.11,34.91l94.44-38.75c38.67-15.6,81.56,12.12,82.22,53.81a47.82,47.82,0,0,1-.57,8.4l-6.79,40.85a179.59,179.59,0,0,1,35.19,54.37l-1.71-.16-67.17-6.94A122.83,122.83,0,0,1,459,500l-1.16-1.24s-23.21,32.71-76,34.82l-13.71,68.59-25.86-56.57a32.63,32.63,0,0,0-22.06-18.19c-11.9-2.85-29.51-11.9-45.69-38.87C248.16,444.55,281.12,362.35,346.26,275.05Z" transform="translate(-256.45 -108.91)"/><path class="cls-2" d="M289.63,273.82l.2,2a6.39,6.39,0,0,1-4.81,6.87l-2.72.78,15.82,2.7L291.94,291l-16.59-7.14Z" transform="translate(-256.45 -108.91)"/><path class="cls-2" d="M354.55,281.09c-25.34,30.23-56.7,95.36-59.92,143.61s24.12,68.35,38.6,76.39,16.44,27,31.94,71c0,0-23.1-33.19-36.77-39.62s-54.68-29.75-60.31-50.66-2.41-80.41,18.5-115.79,59.67-90.95,59.67-90.95Z" transform="translate(-256.45 -108.91)"/><polygon class="cls-3" points="308.82 366.53 289.57 428.25 347.15 436.19 308.82 366.53"/><path class="cls-4" d="M564.67,432l-47.33,45.86A36.25,36.25,0,0,0,507.16,496l-4.57,20.6a4.71,4.71,0,0,0,3.59,5.63l21.26,13.59a4.73,4.73,0,0,0,4.63-1.58l40.61-98.67c.67-.8,0,1,0,0h0A4.73,4.73,0,0,0,564.67,432Z" transform="translate(-256.45 -108.91)"/><polygon class="cls-2" points="125.45 424.7 125.67 441.19 156.52 488.97 162.5 420.29 125.45 424.7"/><path class="cls-5" d="M490.44,438.56l-20.61,29.2a12.33,12.33,0,0,0,1.49,15.94L489,500.82a4.72,4.72,0,0,0,8-3.22l2-56.14A4.73,4.73,0,0,0,490.44,438.56Z" transform="translate(-256.45 -108.91)"/><path class="cls-6" d="M447.25,416.26l4.86,38.83a4.72,4.72,0,0,0,8.71,1.88l34-55.47a4.72,4.72,0,0,0-5.88-6.81l-38.84,16.64A4.74,4.74,0,0,0,447.25,416.26Z" transform="translate(-256.45 -108.91)"/><path class="cls-7" d="M515.31,396.34,513,450.84a4.72,4.72,0,0,0,8.15,3.44L559,414.18a4.75,4.75,0,0,0,.5-5.87c-3.68-5.56-13.92-16-39.33-16.5A4.74,4.74,0,0,0,515.31,396.34Z" transform="translate(-256.45 -108.91)"/><path class="cls-8" d="M431.68,434.51,369.44,457a4.72,4.72,0,0,0,.56,9.05l69.74,15.75a4.73,4.73,0,0,0,5.68-5.52L437.92,438A4.73,4.73,0,0,0,431.68,434.51Z" transform="translate(-256.45 -108.91)"/><path class="cls-9" d="M388.32,479.36l34,9.1a4.73,4.73,0,0,1,.38,9l-30.34,10.92a4.73,4.73,0,0,1-6.25-3.6l-3.64-20A4.72,4.72,0,0,1,388.32,479.36Z" transform="translate(-256.45 -108.91)"/><path class="cls-10" d="M365.07,474.3l-23.52-7.5a5.57,5.57,0,0,0-7.25,5.74l1,12.76a5.57,5.57,0,0,0,6.82,5L364.64,485A5.58,5.58,0,0,0,365.07,474.3Z" transform="translate(-256.45 -108.91)"/><path class="cls-11" d="M339.19,451.27l-23.5-6.84a4.45,4.45,0,0,1-1.77-7.53l14-12.91a4.44,4.44,0,0,1,7,1.33l9.51,19.77A4.43,4.43,0,0,1,339.19,451.27Z" transform="translate(-256.45 -108.91)"/></g><g id="K"><path class="cls-12" d="M319.74,254.58a9.16,9.16,0,0,0-6.2,6.14,3.22,3.22,0,0,0,4,4l9.53-2.76a3.21,3.21,0,0,0,1.34-5.41A9.16,9.16,0,0,0,319.74,254.58Z" transform="translate(-256.45 -108.91)"/><path class="cls-12" d="M632.41,611.32c-4.07-34.81-16.36-83.93-51.6-123l6-36.25a57,57,0,0,0,.7-10.11,67.44,67.44,0,0,0-29.12-54.81,20.74,20.74,0,0,0,15.49-32.07,3.56,3.56,0,0,0-5.46-.46l-24.65,24.65a69.69,69.69,0,0,0-51.59.24L397.77,418.3a17.91,17.91,0,0,1-23.6-22.81l10.36-27.93a179.57,179.57,0,0,0,1.24-121.13,9.17,9.17,0,0,0-.49-1.16,50.29,50.29,0,0,0-9-12.6c3.09-.92,6.47-1.78,9.25-2.49,22.32-5.69,53.63-14.61,59.4-54.79,1.56-4,1.14-23.06,18.13-30.08a2.88,2.88,0,0,0,1.64-3.4l-.51-1.91a2.91,2.91,0,0,0-4.07-1.84,72.71,72.71,0,0,0-9.06,4.63c4.92-18.42,10.41-22.25,18.61-26.75a2.85,2.85,0,0,0,1.15-3.72l-.91-1.75a2.89,2.89,0,0,0-3.66-1.47c-5.29,2.07-16.91,8.56-26.23,27.44A55,55,0,0,0,434.13,122a2.89,2.89,0,0,0-4.06-.93l-1.95,1.28a2.89,2.89,0,0,0-1,3.62c4.87,10.84,4,33.89,2.08,46.85-3.05,19.06-15,27.83-28.91,33.15,4.1-10.69,3.56-20.79,0-31.8a2.71,2.71,0,0,0-3.66-1.64l-2.3,1a2.69,2.69,0,0,0-1.58,2.93c2.62,14.55-1.11,33.07-12.11,35.33l-.26.08c-8.78,2.24-14.69,3.81-22.78,8.84q-1.86-.66-3.78-1.17l1.9-1.13a27.36,27.36,0,0,0,11.61-33.38,2,2,0,0,0-3.52-.44l-23.5,33.23q-2,0-3.87.18l17.52-24.43a2,2,0,0,0-1.57-3.18h0a27.36,27.36,0,0,0-27.75,21.88l-1.8,8.83a49.85,49.85,0,0,0-17.47,11.35l-39.07,39.07c-4.69,4.69-5.93,11.63-3.24,18.12,3.05,7.36,9.76,12.26,17.4,15-1.24.58-2.49,1.12-3.75,1.61a3.37,3.37,0,0,0,1.25,6.49c13.13-.35,22.59-5.33,32.52-13.16h7.73c-23.06,34.39-40.3,67.05-50.47,95.78C252.94,437,252.71,470.2,267,494c17.87,29.79,37.94,39.95,51.62,43.23a23,23,0,0,1,15.64,12.9l24.86,54.37A305.83,305.83,0,0,1,341.67,682c-4.68,12-12.77,16.86-24.43,18.11a17.61,17.61,0,0,0-11.84,6.34l-2.19,2.69a2.42,2.42,0,0,0,1.88,4h21.46a4.89,4.89,0,0,0,4.5-2.86c1.53-3.46,5.64-9.11,17.08-9.11a9.52,9.52,0,0,0,8.83-6c17.8-44.51,20.85-85.11,21.22-91.25l6.41-32.08L404.25,605a305,305,0,0,1-17.39,77c-4.66,12.05-12.69,16.82-24.34,18.07a17.65,17.65,0,0,0-11.85,6.34l-2.19,2.69a2.43,2.43,0,0,0,1.88,4h21.47a4.87,4.87,0,0,0,4.49-2.86c1.53-3.46,5.57-9.11,17-9.11a9.5,9.5,0,0,0,8.82-6c18.32-45.8,21-87.47,21.25-91.7l7.68-71.36a105,105,0,0,0,27.09-18.45c33.32,37.52,75.95,52.72,91.63,57.29,10.26,53.95-9,92.07-18.42,110.71-6,12.19-13.27,17.21-24.92,18.46a17.65,17.65,0,0,0-11.85,6.34l-2.19,2.69a2.43,2.43,0,0,0,1.88,4h21.47a4.9,4.9,0,0,0,4.5-2.86c1.53-3.46,5.75-8.86,17.19-8.86,3.74,0,6.61-2.29,8.22-5.77.65-1.41,1.58-3.26,2.66-5.39,9.84-19.48,32.8-65,19.07-127.92V551.37l31.77,3.29a238.63,238.63,0,0,1,14.34,58.86c3.6,30.86,1.25,56.59-1.16,68.3-3.14,12-12.56,17-24.21,18.29a17.65,17.65,0,0,0-11.85,6.34l-2.19,2.69a2.43,2.43,0,0,0,1.88,4h21.47a4.87,4.87,0,0,0,4.49-2.86c1.54-3.46,5.94-9.11,17.39-9.11a9.49,9.49,0,0,0,8.63-5.52C632.75,685.27,637,650.22,632.41,611.32Zm-224.87-38L390.17,544l.17-.84a127.44,127.44,0,0,0,20.85-3.72Zm140.88-23.43v.67l-.3-.11Zm-10.51-20.64A113.28,113.28,0,0,1,466.5,494l-1.16-1.23a9.46,9.46,0,0,0-14.64,1c-.06.07-5.44,7.38-16.56,14.79-14.82,9.88-32.34,15.29-52.07,16.08a9.48,9.48,0,0,0-8.94,7.63l-8,39.8L351.51,542.2A41.88,41.88,0,0,0,323,518.72c-10.15-2.43-25.28-10.4-39.76-34.52-22.17-37,3.67-111.66,69.13-200.19.68-.89,1.36-1.8,2-2.71l0,0h0l.12-.17A9.5,9.5,0,0,0,339.2,269.9h0c-.68.91-1.36,1.82-2,2.74-5.17,6.69-8.23,8-12.28,8H307.53a9.59,9.59,0,0,0-5.29,1.6l-9,6c-6.66-.57-10.51-3.17-12-4.83l37.5-37.49A31,31,0,0,1,368,253.3,160.42,160.42,0,0,1,366.71,361l-10.36,27.93a36.92,36.92,0,0,0,48.63,47l94.38-38.72a50.65,50.65,0,0,1,47,4.8,48.77,48.77,0,0,1,22.19,40.35,37.5,37.5,0,0,1-.44,6.69l-6.79,40.85c0,.07,0,.14,0,.21s0,.32-.06.48,0,.32,0,.48,0,.28,0,.42,0,.35,0,.52,0,.26,0,.38l.06.54c0,.13.05.26.08.38a4.64,4.64,0,0,0,.11.51c0,.14.08.28.12.42s.09.3.14.44l.18.46c.06.12.11.25.17.38s.16.31.24.46a4,4,0,0,0,.2.35c.08.14.18.28.27.42s.17.25.26.37.18.24.28.35.22.27.33.39l.13.15A164.45,164.45,0,0,1,590,534.61Z" transform="translate(-256.45 -108.91)"/></g></svg>