<svg id="Layer_1" data-name="Layer 1" xmlns="http://www.w3.org/2000/svg" viewBox="0 0 249.55 293.2"><defs><style>.cls-1{fill:#1ea4de;}.cls-2{fill:#231f20;}.cls-3{fill:#fff;}.cls-4{fill:#c0cdd2;}.cls-5{fill:#9f4b24;}.cls-6{fill:#80469b;}.cls-7{fill:#124b9c;}.cls-8{fill:#abd037;}.cls-9{fill:#f68521;}.cls-10{fill:#ed2c2d;}.cls-11{fill:#5fba47;}.cls-12{fill:#f7bd19;}</style></defs><path class="cls-1" d="M43.58,321.45a3.21,3.21,0,0,0-.18.91c0,.27.13.41.37.41s.7-.54,1.06-1.6l.77.24c-.62,1.94-1.48,2.65-2.45,2.65a1.25,1.25,0,0,1-1.3-1.4c0-.11,0-.19,0-.35l-.11,0a2.83,2.83,0,0,1-2.41,1.79c-1.37,0-2.11-1.13-2.11-2.53a5.59,5.59,0,0,1,1.5-3.9,3.5,3.5,0,0,1,2.48-1.21,1.53,1.53,0,0,1,1.54,1.33l.32-1.22h1.81Zm-1.22-2.73c0-.82-.31-1.27-.86-1.27-1.42,0-2.35,2.64-2.35,3.93,0,.93.33,1.41.92,1.41C41.36,322.79,42.36,320,42.36,318.72Z" transform="translate(-37.23 -33.4)"/><path class="cls-1" d="M53.55,322.77c.34,0,.67-.5,1.1-1.6l.75.24c-.64,1.92-1.53,2.65-2.43,2.65a1.35,1.35,0,0,1-1.42-1.48c0-1.59,1.05-3.16,1.05-4.24,0-.36-.16-.52-.43-.52-.73,0-2.09,1.2-3.37,6.08H46.9l1.36-5.15c.24-.9.2-1.15-.09-1.15s-.78.68-1.24,1.66l-.75-.32c.69-1.58,1.48-2.5,2.55-2.5.68,0,1.16.49,1.16,1.47a5.85,5.85,0,0,1-.34,1.77l.11,0c1.05-2.24,2.23-3.3,3.35-3.3a1.48,1.48,0,0,1,1.45,1.65c0,1.35-1.18,3.38-1.18,4.35C53.28,322.66,53.38,322.77,53.55,322.77Z" transform="translate(-37.23 -33.4)"/><path class="cls-1" d="M65.2,313.19a4.31,4.31,0,0,1,4.43,4.6c0,3.06-2.3,6.36-5.83,6.36a4.31,4.31,0,0,1-4.45-4.59C59.35,316.5,61.66,313.19,65.2,313.19Zm-3.72,7.07c0,1.85.91,2.74,2.4,2.74,2.59,0,3.64-3.86,3.64-5.91,0-1.85-.93-2.74-2.4-2.74C62.51,314.35,61.48,318.21,61.48,320.26Z" transform="translate(-37.23 -33.4)"/><path class="cls-1" d="M72.09,317.74c-.37,0-.65.46-1.16,1.52l-.75-.32c.77-1.74,1.51-2.5,2.51-2.5.72,0,1.2.52,1.2,1.42a3,3,0,0,1,0,.4l.13.05a2.93,2.93,0,0,1,2.45-1.89c1.33,0,2.09,1.1,2.09,2.57,0,2.56-1.76,4.93-3.71,4.93A1.93,1.93,0,0,1,73,322.85l-.64,2.37h1.49l-.31,1.18h-4.4l.31-1.18h1.08l1.69-6.29C72.46,318,72.38,317.74,72.09,317.74Zm1.29,3.87c0,.78.33,1.32,1,1.32,1.41,0,2.21-2.67,2.21-3.92,0-.89-.29-1.35-.88-1.35C74.47,317.66,73.38,320.22,73.38,321.61Z" transform="translate(-37.23 -33.4)"/><path class="cls-1" d="M81.33,320.91c0,.13,0,.26,0,.37,0,1.32.68,1.73,1.48,1.73A2.92,2.92,0,0,0,85,321.55l.67.48a4,4,0,0,1-3.48,2,2.69,2.69,0,0,1-2.78-2.89,4.83,4.83,0,0,1,4.6-4.75c1.37,0,2.13.68,2.13,1.65C86.16,319.5,84.67,320.72,81.33,320.91Zm.15-.74c2.21-.24,3-1.1,3-2.08a.73.73,0,0,0-.74-.8C82.65,317.29,81.81,318.8,81.48,320.17Z" transform="translate(-37.23 -33.4)"/><path class="cls-1" d="M94.34,322.77c.34,0,.67-.5,1.1-1.6l.75.24c-.64,1.92-1.53,2.65-2.43,2.65a1.35,1.35,0,0,1-1.42-1.48c0-1.59,1-3.16,1-4.24,0-.36-.16-.52-.43-.52-.73,0-2.1,1.2-3.37,6.08h-1.9l1.36-5.15c.24-.9.19-1.15-.09-1.15s-.78.68-1.24,1.66l-.75-.32c.69-1.58,1.48-2.5,2.54-2.5.69,0,1.16.49,1.16,1.47a5.79,5.79,0,0,1-.33,1.77l.11,0c1-2.24,2.23-3.3,3.35-3.3a1.48,1.48,0,0,1,1.45,1.65c0,1.35-1.18,3.38-1.18,4.35C94.07,322.66,94.17,322.77,94.34,322.77Z" transform="translate(-37.23 -33.4)"/><path class="cls-1" d="M97.84,320.18H99c.3,1.91,1.41,2.85,2.81,2.85a1.78,1.78,0,0,0,2-1.62c0-.92-1.05-1.35-2.17-1.88-1.32-.59-2.77-1.28-2.77-3a3.58,3.58,0,0,1,3.72-3.37,3.32,3.32,0,0,1,2.7,1.21l.65-1.16h1.19l-.93,3.77H105c-.33-2-1.12-2.7-2.49-2.7a1.66,1.66,0,0,0-1.76,1.57c0,1,1.08,1.43,2.22,1.94,1.3.55,2.7,1.22,2.7,2.89a3.65,3.65,0,0,1-3.91,3.44,3.71,3.71,0,0,1-3-1.27l-.69,1.23h-1.2Z" transform="translate(-37.23 -33.4)"/><path class="cls-1" d="M110.91,317.72l-1,3.48a4.56,4.56,0,0,0-.19.95c0,.43.22.58.55.58.57,0,1.05-.7,1.5-1.72l.76.25c-.78,2.26-2,2.8-2.86,2.8-1,0-1.8-.52-1.8-1.6a7.71,7.71,0,0,1,.29-1.58l.86-3.16h-1.4l.25-1h1.4l.53-1.9,1.89-.21-.58,2.11h2.26l-.25,1Z" transform="translate(-37.23 -33.4)"/><path class="cls-1" d="M120.17,321.45a3.11,3.11,0,0,0-.17.91c0,.27.12.41.36.41s.7-.54,1.07-1.6l.76.24c-.62,1.94-1.48,2.65-2.45,2.65a1.25,1.25,0,0,1-1.3-1.4c0-.11,0-.19,0-.35l-.11,0a2.83,2.83,0,0,1-2.41,1.79c-1.37,0-2.11-1.13-2.11-2.53a5.56,5.56,0,0,1,1.51-3.9,3.46,3.46,0,0,1,2.47-1.21,1.53,1.53,0,0,1,1.54,1.33l.32-1.22h1.81ZM119,318.72c0-.82-.3-1.27-.86-1.27-1.41,0-2.35,2.64-2.35,3.93,0,.93.33,1.41.92,1.41C118,322.79,119,320,119,318.72Z" transform="translate(-37.23 -33.4)"/><path class="cls-1" d="M129.46,318.29a1.26,1.26,0,0,1-1.11,1.37.87.87,0,0,1-.94-.86,1.36,1.36,0,0,1,.65-1.08.91.91,0,0,0-.87-.4c-1.59,0-2.52,2.44-2.52,3.82s.73,1.79,1.44,1.79,1.43-.52,2.07-1.51l.68.46a3.63,3.63,0,0,1-3.18,2.18,2.77,2.77,0,0,1-2.92-2.92,4.77,4.77,0,0,1,4.4-4.72C128.49,316.42,129.46,317.17,129.46,318.29Z" transform="translate(-37.23 -33.4)"/><path class="cls-1" d="M136.2,322.77c.35,0,.65-.5,1.06-1.6l.75.24c-.61,1.92-1.43,2.65-2.35,2.65a1.44,1.44,0,0,1-1.48-1.62c0-.45.17-1.08.17-1.43,0-.59-.25-.73-1.41-.73h0l-1,3.62h-1.8l2.58-9.7H131.4l.32-1.24h3.16l-1.78,6.6h.08c.84,0,1.19-.47,1.89-1.63.52-.86,1.05-1.51,2-1.51a1.08,1.08,0,0,1,1.18,1.16,1.23,1.23,0,0,1-1.08,1.33c-.64,0-1-.55-.75-1.2-.22,0-.46.31-.82.92a2.43,2.43,0,0,1-1.05,1.17c1.13.1,1.49.59,1.49,1.34,0,.46-.13.92-.13,1.2S136,322.77,136.2,322.77Z" transform="translate(-37.23 -33.4)"/><path class="cls-1" d="M144.89,319.72c0-3.19,2.35-6.53,5.84-6.53a3.24,3.24,0,0,1,2.84,1.29l.65-1.24h1.23l-1,4.13h-1.19c-.16-2.28-1.16-3-2.45-3-2.81,0-3.78,3.79-3.78,5.53,0,2.11,1.08,3,2.46,3,1.69,0,2.67-1.27,3.47-3.14l1.13.4c-.8,2.22-2.28,4-4.82,4C146.33,324.15,144.89,322.3,144.89,319.72Z" transform="translate(-37.23 -33.4)"/><path class="cls-1" d="M162.31,319.48a4.51,4.51,0,0,1-4.19,4.58,2.9,2.9,0,0,1-3-3.08,4.48,4.48,0,0,1,4.19-4.56A2.89,2.89,0,0,1,162.31,319.48Zm-3-2.19c-1.48,0-2.32,2.89-2.32,4.44,0,1,.43,1.44,1.11,1.44,1.48,0,2.32-2.89,2.32-4.43C160.42,317.72,160,317.29,159.31,317.29Z" transform="translate(-37.23 -33.4)"/><path class="cls-1" d="M172.63,322.58c0-1.59,1.05-3.16,1.05-4.24,0-.36-.16-.52-.43-.52-.7,0-2.08,1.2-3.35,6.08H168l1.11-4.19a5.12,5.12,0,0,0,.22-1.21c0-.38-.13-.68-.47-.68-.74,0-2.1,1.2-3.37,6.08h-1.91l1.37-5.15c.24-.9.19-1.15-.1-1.15s-.78.68-1.24,1.66l-.74-.32c.68-1.58,1.47-2.5,2.54-2.5.68,0,1.16.49,1.16,1.47a5.85,5.85,0,0,1-.34,1.77l.12,0c1-2.24,2.22-3.3,3.3-3.3.87,0,1.33.59,1.33,1.54a5.84,5.84,0,0,1-.36,1.72l.11,0c1.05-2.24,2.22-3.3,3.35-3.3a1.48,1.48,0,0,1,1.43,1.65c0,1.35-1.17,3.38-1.17,4.35,0,.24.09.35.27.35.33,0,.66-.5,1.09-1.6l.75.24c-.64,1.92-1.53,2.65-2.43,2.65A1.35,1.35,0,0,1,172.63,322.58Z" transform="translate(-37.23 -33.4)"/><path class="cls-1" d="M186.56,322.58c0-1.59,1.05-3.16,1.05-4.24,0-.36-.16-.52-.43-.52-.7,0-2.08,1.2-3.35,6.08H182l1.11-4.19a5.12,5.12,0,0,0,.22-1.21c0-.38-.13-.68-.47-.68-.74,0-2.1,1.2-3.37,6.08h-1.91l1.37-5.15c.24-.9.19-1.15-.1-1.15s-.78.68-1.24,1.66l-.74-.32c.68-1.58,1.47-2.5,2.54-2.5.68,0,1.16.49,1.16,1.47a5.85,5.85,0,0,1-.34,1.77l.12,0c1-2.24,2.22-3.3,3.3-3.3.87,0,1.33.59,1.33,1.54a5.84,5.84,0,0,1-.36,1.72l.11,0c1.05-2.24,2.22-3.3,3.35-3.3a1.47,1.47,0,0,1,1.43,1.65c0,1.35-1.17,3.38-1.17,4.35,0,.24.09.35.27.35.33,0,.66-.5,1.09-1.6l.75.24c-.64,1.92-1.53,2.65-2.43,2.65A1.35,1.35,0,0,1,186.56,322.58Z" transform="translate(-37.23 -33.4)"/><path class="cls-1" d="M196.33,322.57a6.57,6.57,0,0,1,.35-1.81l-.11-.05c-1,2.3-2.16,3.35-3.3,3.35a1.48,1.48,0,0,1-1.45-1.67c0-1.33,1.13-3.45,1.13-4.35,0-.22-.1-.33-.24-.33-.33,0-.6.35-1.17,1.54l-.75-.32c.65-1.57,1.49-2.51,2.59-2.51a1.26,1.26,0,0,1,1.33,1.44c0,1.48-1.05,3.17-1.05,4.18,0,.45.18.62.45.62.71,0,2-1.17,3.33-6.13h1.91l-1.3,4.92a3.27,3.27,0,0,0-.18.91.36.36,0,0,0,.37.41c.36,0,.7-.54,1.06-1.6l.77.24c-.62,1.94-1.48,2.65-2.39,2.65S196.33,323.6,196.33,322.57Z" transform="translate(-37.23 -33.4)"/><path class="cls-1" d="M207.66,322.77c.33,0,.67-.5,1.09-1.6l.75.24c-.63,1.92-1.52,2.65-2.43,2.65a1.34,1.34,0,0,1-1.41-1.48c0-1.59,1.05-3.16,1.05-4.24,0-.36-.16-.52-.43-.52-.73,0-2.1,1.2-3.37,6.08H201l1.37-5.15c.24-.9.19-1.15-.1-1.15s-.77.68-1.24,1.66l-.74-.32c.68-1.58,1.47-2.5,2.54-2.5.68,0,1.16.49,1.16,1.47a6.11,6.11,0,0,1-.33,1.77l.11,0c1-2.24,2.22-3.3,3.35-3.3a1.48,1.48,0,0,1,1.44,1.65c0,1.35-1.17,3.38-1.17,4.35C207.39,322.66,207.48,322.77,207.66,322.77Z" transform="translate(-37.23 -33.4)"/><path class="cls-1" d="M212.74,322.39c0,.27.11.38.32.38s.65-.43,1.13-1.6l.74.24c-.62,1.87-1.51,2.65-2.52,2.65a1.37,1.37,0,0,1-1.43-1.49c0-1.51,1.32-3.64,1.32-4.63,0-.25-.1-.34-.24-.34-.45,0-.84.68-1.29,1.66l-.76-.32c.68-1.58,1.52-2.52,2.6-2.52A1.42,1.42,0,0,1,214,318C214,319.26,212.74,321.47,212.74,322.39Zm.76-7.08a1,1,0,0,1-1-1,1.37,1.37,0,0,1,1.33-1.4,1,1,0,0,1,1,1A1.41,1.41,0,0,1,213.5,315.31Z" transform="translate(-37.23 -33.4)"/><path class="cls-1" d="M219.11,317.72l-1,3.48a4.56,4.56,0,0,0-.19.95c0,.43.22.58.55.58.57,0,1-.7,1.49-1.72l.77.25c-.78,2.26-2,2.8-2.86,2.8-1,0-1.8-.52-1.8-1.6a7.71,7.71,0,0,1,.29-1.58l.86-3.16h-1.4l.25-1h1.4l.53-1.9,1.88-.21-.57,2.11h2.26l-.26,1Z" transform="translate(-37.23 -33.4)"/><path class="cls-1" d="M225.37,317.8c0,1.46-.92,2.89-.92,3.81,0,.4.17.56.52.56.84,0,2-.95,3.18-5.64h1.78l-1.46,6.13c-.69,2.92-2.29,3.94-4.28,3.94-1.11,0-2.44-.3-2.44-1.48a1.12,1.12,0,0,1,1.09-1.14.86.86,0,0,1,.92,1,1.11,1.11,0,0,1-.31.68,2.12,2.12,0,0,0,.73.11c1.24,0,2.08-1,2.62-3.21l.32-1.25-.1,0c-.92,1.69-1.91,2.31-2.83,2.31a1.5,1.5,0,0,1-1.57-1.66c0-1.22,1-2.94,1-3.84,0-.21-.1-.33-.24-.33-.4,0-.78.65-1.21,1.55l-.75-.32c.7-1.58,1.58-2.52,2.63-2.52A1.25,1.25,0,0,1,225.37,317.8Z" transform="translate(-37.23 -33.4)"/><path class="cls-1" d="M236.28,322.71H238l-.27,1.19H232.4l.27-1.19h1.61l2-8.07h-1.62l.3-1.19h4.4c2.88,0,4,1.17,4,2.67s-1.09,3.6-5,3.6H237Zm2.08-4.11a2.43,2.43,0,0,0,2.75-2.5c0-.92-.56-1.48-2.13-1.48h-.68l-1,4Z" transform="translate(-37.23 -33.4)"/><path class="cls-1" d="M245.81,318.75c.24-.9.19-1.15-.09-1.15s-.78.68-1.24,1.66l-.75-.32c.68-1.58,1.48-2.5,2.54-2.5.68,0,1.16.49,1.16,1.47a5.55,5.55,0,0,1-.32,1.72l.13.05c.92-2.1,1.68-3.26,2.8-3.26a1.12,1.12,0,0,1,1.15,1.21,1.3,1.3,0,0,1-1.14,1.43.92.92,0,0,1-1-1c-.46.19-1.61,1.54-2.75,5.88h-1.91Z" transform="translate(-37.23 -33.4)"/><path class="cls-1" d="M258.74,319.48a4.51,4.51,0,0,1-4.19,4.58,2.9,2.9,0,0,1-3-3.08,4.48,4.48,0,0,1,4.19-4.56A2.89,2.89,0,0,1,258.74,319.48Zm-3-2.19c-1.48,0-2.32,2.89-2.32,4.44,0,1,.43,1.44,1.11,1.44,1.48,0,2.32-2.89,2.32-4.43C256.85,317.72,256.42,317.29,255.74,317.29Z" transform="translate(-37.23 -33.4)"/><path class="cls-1" d="M263.92,319.28l-1,3.79c-.67,2.53-1.91,3.53-3.37,3.53-1.11,0-1.59-.52-1.59-1.13a1.08,1.08,0,0,1,1.05-1.12.79.79,0,0,1,.83.81,1.23,1.23,0,0,1-.26.76c.68,0,.95-.4,1.54-2.67l1.05-4a6.27,6.27,0,0,0,.24-1.27c0-.29-.13-.36-.27-.36-.38,0-.8.68-1.26,1.66l-.74-.32c.68-1.58,1.51-2.52,2.62-2.52a1.39,1.39,0,0,1,1.38,1.51A5.66,5.66,0,0,1,263.92,319.28Zm-.3-4a1,1,0,0,1-1-1,1.39,1.39,0,0,1,1.34-1.4,1,1,0,0,1,1,1A1.41,1.41,0,0,1,263.62,315.31Z" transform="translate(-37.23 -33.4)"/><path class="cls-1" d="M267.35,320.91a2.42,2.42,0,0,0,0,.37c0,1.32.68,1.73,1.48,1.73a2.89,2.89,0,0,0,2.22-1.46l.67.48a4,4,0,0,1-3.48,2,2.69,2.69,0,0,1-2.78-2.89,4.83,4.83,0,0,1,4.61-4.75c1.36,0,2.13.68,2.13,1.65C272.18,319.5,270.68,320.72,267.35,320.91Zm.14-.74c2.21-.24,3-1.1,3-2.08a.72.72,0,0,0-.73-.8C268.67,317.29,267.82,318.8,267.49,320.17Z" transform="translate(-37.23 -33.4)"/><path class="cls-1" d="M279.83,318.29a1.26,1.26,0,0,1-1.11,1.37.87.87,0,0,1-.94-.86,1.36,1.36,0,0,1,.65-1.08.91.91,0,0,0-.87-.4c-1.59,0-2.52,2.44-2.52,3.82s.73,1.79,1.44,1.79,1.43-.52,2.07-1.51l.68.46a3.63,3.63,0,0,1-3.18,2.18,2.77,2.77,0,0,1-2.92-2.92,4.77,4.77,0,0,1,4.4-4.72C278.86,316.42,279.83,317.17,279.83,318.29Z" transform="translate(-37.23 -33.4)"/><path class="cls-1" d="M284.26,317.72l-.95,3.48a4.56,4.56,0,0,0-.19.95c0,.43.22.58.56.58.57,0,1-.7,1.49-1.72l.76.25c-.78,2.26-2,2.8-2.86,2.8-1.05,0-1.79-.52-1.79-1.6a7.7,7.7,0,0,1,.28-1.58l.86-3.16H281l.26-1h1.4l.52-1.9,1.89-.21-.57,2.11h2.25l-.25,1Z" transform="translate(-37.23 -33.4)"/><path class="cls-2" d="M39,294.89l6.14-8.38c3.65,3,7.81,5.05,12.16,5.05,3.07,0,4.67-1.34,4.67-3.26v-.07c0-1.79-1.34-2.87-6.59-4.73-8.45-2.88-14.4-5.95-14.4-14.08v-.19c0-8.13,6.21-13.82,16-13.82a24.47,24.47,0,0,1,16,5.44l-5.82,8.57c-3.07-2.37-6.79-4.1-10.43-4.1-2.63,0-4.1,1.29-4.1,2.95v.06c0,2,1.41,3,7.1,5.12,8.52,2.75,13.83,6.21,13.83,13.82v.13c0,8.71-6.72,14.08-16.32,14.08A27.29,27.29,0,0,1,39,294.89Z" transform="translate(-37.23 -33.4)"/><path class="cls-2" d="M77.52,256.05H89v17.72l12.35-17.72h13.24l-13.88,19.07,14.33,25.72H101.64l-9-16.32L89,289.19v11.65H77.52Z" transform="translate(-37.23 -33.4)"/><path class="cls-2" d="M131.53,284.08l-14.4-28h12.74l7.48,16.19,7.56-16.19h12.54L143.05,284v16.89H131.53Z" transform="translate(-37.23 -33.4)"/><path class="cls-2" d="M160.33,256.05h11.52v34.43h17.6v10.36H160.33Z" transform="translate(-37.23 -33.4)"/><path class="cls-2" d="M193.55,256.05h11.51v44.79H193.55Z" transform="translate(-37.23 -33.4)"/><path class="cls-2" d="M209.74,256.05h10.81l14.91,22.52V256.05h11.33v44.79H236.55l-15.49-23.48v23.48H209.74Z" transform="translate(-37.23 -33.4)"/><path class="cls-2" d="M251.46,256.05h30.85v10.11H262.85v7.36h17.54v9.53H262.85v7.68h19.72v10.11H251.46Z" transform="translate(-37.23 -33.4)"/><path class="cls-3" d="M123.07,87.83c-2,2.87-3.95,4.76-7.18,4.76H110.2l-3.78,2.54c-6.46,0-9.57-4.4-7.55-6.42l12.8-12.8A13.26,13.26,0,0,1,121.05,72h0a13.26,13.26,0,0,1,11.84,7.28h0a55.56,55.56,0,0,1-.38,37.58l-3.4,9.15a9,9,0,0,0,11.83,11.44l30.94-12.7c12.67-5.11,26.72,4,26.94,17.63a16.17,16.17,0,0,1-.19,2.76l-2.22,13.38a59.09,59.09,0,0,1,11.53,17.81l-.56,0-22-2.28A40.21,40.21,0,0,1,160,161.53l-.38-.4s-7.6,10.71-24.89,11.41L130.25,195l-8.47-18.53a10.71,10.71,0,0,0-7.23-6c-3.9-.93-9.67-3.89-15-12.73C90.93,143.36,101.73,116.43,123.07,87.83Z" transform="translate(-37.23 -33.4)"/><path class="cls-4" d="M104.51,87.43l.07.65A2.09,2.09,0,0,1,103,90.33l-.89.26,5.19.88-2,1.58-5.43-2.34Z" transform="translate(-37.23 -33.4)"/><path class="cls-4" d="M125.78,89.81c-8.3,9.9-18.57,31.24-19.63,47.05s7.91,22.39,12.65,25,5.39,8.84,10.46,23.26c0,0-7.56-10.88-12-13s-17.92-9.75-19.76-16.6-.79-26.34,6.06-37.93,19.55-29.8,19.55-29.8Z" transform="translate(-37.23 -33.4)"/><polygon class="cls-5" points="157.59 120.08 151.29 140.3 170.15 142.9 157.59 120.08"/><path class="cls-6" d="M194.62,139.24l-15.5,15a12,12,0,0,0-3.34,6l-1.5,6.75a1.55,1.55,0,0,0,1.18,1.84l7,4.45a1.52,1.52,0,0,0,1.51-.51l13.31-32.33c.21-.26,0,.34,0,0h0A1.55,1.55,0,0,0,194.62,139.24Z" transform="translate(-37.23 -33.4)"/><polygon class="cls-4" points="97.52 139.14 97.59 144.54 107.7 160.19 109.66 137.69 97.52 139.14"/><path class="cls-7" d="M170.3,141.4,163.55,151a4,4,0,0,0,.49,5.22l5.79,5.62a1.55,1.55,0,0,0,2.62-1.06l.66-18.39A1.55,1.55,0,0,0,170.3,141.4Z" transform="translate(-37.23 -33.4)"/><path class="cls-8" d="M156.16,134.09l1.59,12.72a1.54,1.54,0,0,0,2.85.62l11.13-18.17A1.55,1.55,0,0,0,169.8,127l-12.72,5.46A1.54,1.54,0,0,0,156.16,134.09Z" transform="translate(-37.23 -33.4)"/><path class="cls-1" d="M178.45,127.57l-.74,17.85a1.55,1.55,0,0,0,2.67,1.13l12.38-13.14a1.55,1.55,0,0,0,.16-1.92c-1.2-1.82-4.56-5.24-12.88-5.41A1.56,1.56,0,0,0,178.45,127.57Z" transform="translate(-37.23 -33.4)"/><path class="cls-9" d="M151.05,140.07l-20.39,7.37a1.55,1.55,0,0,0,.19,3l22.84,5.16a1.55,1.55,0,0,0,1.86-1.81l-2.45-12.53A1.56,1.56,0,0,0,151.05,140.07Z" transform="translate(-37.23 -33.4)"/><path class="cls-10" d="M136.85,154.76l11.13,3a1.55,1.55,0,0,1,.12,2.95l-9.94,3.58a1.54,1.54,0,0,1-2-1.18l-1.19-6.56A1.55,1.55,0,0,1,136.85,154.76Z" transform="translate(-37.23 -33.4)"/><path class="cls-11" d="M129.23,153.11l-7.71-2.46a1.82,1.82,0,0,0-2.37,1.88l.33,4.18a1.82,1.82,0,0,0,2.23,1.64l7.38-1.73A1.82,1.82,0,0,0,129.23,153.11Z" transform="translate(-37.23 -33.4)"/><path class="cls-12" d="M120.75,145.56l-7.7-2.24a1.45,1.45,0,0,1-.58-2.46l4.59-4.24a1.45,1.45,0,0,1,2.29.44l3.12,6.48A1.45,1.45,0,0,1,120.75,145.56Z" transform="translate(-37.23 -33.4)"/><path class="cls-2" d="M114.38,81.12a3,3,0,0,0-2,2,1.05,1.05,0,0,0,1.31,1.31l3.12-.9a1,1,0,0,0,.44-1.77A3,3,0,0,0,114.38,81.12Z" transform="translate(-37.23 -33.4)"/><path class="cls-2" d="M216.81,198c-1.33-11.41-5.35-27.5-16.9-40.29l2-11.87a18.37,18.37,0,0,0,.23-3.31,22.08,22.08,0,0,0-9.54-18,6.79,6.79,0,0,0,5.07-10.51,1.16,1.16,0,0,0-1.78-.15L187.78,122a22.85,22.85,0,0,0-16.9.08l-30.94,12.69a5.87,5.87,0,0,1-7.73-7.47l3.4-9.15a58.86,58.86,0,0,0,.4-39.69,3.08,3.08,0,0,0-.16-.38,16.14,16.14,0,0,0-3-4.12c1-.31,2.12-.59,3-.82,7.32-1.87,17.57-4.79,19.46-17.95.52-1.32.38-7.55,5.94-9.86a.93.93,0,0,0,.54-1.11l-.17-.62a1,1,0,0,0-1.33-.61,24.6,24.6,0,0,0-3,1.52c1.61-6,3.41-7.29,6.1-8.76a1,1,0,0,0,.38-1.22l-.3-.58a1,1,0,0,0-1.2-.48c-1.73.68-5.54,2.81-8.59,9a18.81,18.81,0,0,0-1.92-4.76,1,1,0,0,0-1.34-.3l-.63.42a.94.94,0,0,0-.34,1.19c1.59,3.55,1.29,11.1.68,15.34-1,6.25-4.92,9.12-9.47,10.87a14.89,14.89,0,0,0,0-10.42.89.89,0,0,0-1.2-.54l-.75.33a.87.87,0,0,0-.52,1c.86,4.76-.36,10.83-4,11.57l-.08,0A23,23,0,0,0,126.76,70c-.4-.14-.82-.27-1.24-.38l.63-.37A9,9,0,0,0,130,58.35a.65.65,0,0,0-1.15-.15l-7.7,10.89c-.43,0-.85,0-1.27.06l5.74-8a.66.66,0,0,0-.51-1h0A9,9,0,0,0,116,67.27l-.59,2.89a16.38,16.38,0,0,0-5.73,3.72l-12.8,12.8a5.36,5.36,0,0,0-1.06,5.94,9.28,9.28,0,0,0,5.7,4.91c-.4.19-.81.37-1.23.53a1.11,1.11,0,0,0,.41,2.13c4.3-.12,7.4-1.75,10.66-4.31h2.53c-7.55,11.26-13.2,22-16.54,31.38-4.82,13.64-4.9,24.5-.23,32.29,5.86,9.76,12.43,13.09,16.91,14.16a7.56,7.56,0,0,1,5.13,4.23l8.14,17.81a99.73,99.73,0,0,1-5.71,25.4c-1.53,3.94-4.18,5.53-8,5.93a5.83,5.83,0,0,0-3.88,2.08L109,230a.8.8,0,0,0,.62,1.3h7a1.63,1.63,0,0,0,1.48-.93c.5-1.14,1.84-3,5.59-3a3.1,3.1,0,0,0,2.89-2,103.23,103.23,0,0,0,7-29.89l2.11-10.51,6.44,10.87a99.66,99.66,0,0,1-5.7,25.24c-1.53,3.94-4.16,5.51-8,5.91a5.86,5.86,0,0,0-3.88,2.08l-.71.88a.79.79,0,0,0,.61,1.3h7a1.62,1.62,0,0,0,1.48-.93c.5-1.14,1.82-3,5.57-3a3.1,3.1,0,0,0,2.89-2,103.05,103.05,0,0,0,7-30L150.86,172a34.67,34.67,0,0,0,8.88-6c10.91,12.29,24.88,17.27,30,18.77,3.37,17.67-2.94,30.16-6,36.27-2,4-4.35,5.64-8.16,6a5.86,5.86,0,0,0-3.89,2.08L171,230a.79.79,0,0,0,.61,1.3h7a1.61,1.61,0,0,0,1.47-.93c.5-1.14,1.88-2.91,5.63-2.91a2.94,2.94,0,0,0,2.69-1.89c.22-.46.52-1.07.88-1.76,3.22-6.39,10.74-21.28,6.24-41.91v-3.58l10.41,1.07a82.71,82.71,0,0,1,4.32,41.66c-1,3.94-4.11,5.59-7.93,6a5.81,5.81,0,0,0-3.88,2.08l-.72.88a.8.8,0,0,0,.62,1.3h7a1.6,1.6,0,0,0,1.47-.93c.5-1.14,1.95-3,5.7-3a3.1,3.1,0,0,0,2.82-1.81C216.93,222.22,218.3,210.74,216.81,198Zm-73.66-12.46-5.7-9.61.06-.28a40.81,40.81,0,0,0,6.83-1.22Zm46.15-7.68v.22l-.1,0Zm-3.44-6.76a37.13,37.13,0,0,1-23.4-11.53l-.38-.4a3.11,3.11,0,0,0-4.8.31,22.57,22.57,0,0,1-5.42,4.85,32.61,32.61,0,0,1-17.06,5.27,3.11,3.11,0,0,0-2.93,2.5l-2.61,13-4.47-9.79a13.71,13.71,0,0,0-9.34-7.69c-3.32-.8-8.28-3.41-13-11.31-7.26-12.11,1.2-36.58,22.65-65.59.22-.29.44-.58.65-.88v0h0l0,0a3.11,3.11,0,0,0-5-3.67h0l-.66.9c-1.69,2.19-2.69,2.61-4,2.61h-5.69a3,3,0,0,0-1.73.53l-2.94,2a6.07,6.07,0,0,1-3.94-1.58l12.28-12.29a10.17,10.17,0,0,1,16.16,2.43,52.63,52.63,0,0,1-.44,35.26l-3.4,9.15a12.1,12.1,0,0,0,15.94,15.4l30.92-12.69a16.62,16.62,0,0,1,15.39,1.58,16,16,0,0,1,7.27,13.22,12.35,12.35,0,0,1-.15,2.19l-2.22,13.38s0,.05,0,.07,0,.1,0,.16,0,.1,0,.15v.31c0,.05,0,.09,0,.13a.88.88,0,0,0,0,.17.51.51,0,0,0,0,.13,1.36,1.36,0,0,0,0,.17.65.65,0,0,0,0,.13s0,.1,0,.15l.06.15.06.12a1.09,1.09,0,0,0,.08.15l.06.12.09.14.08.12.1.11a.69.69,0,0,0,.11.13l0,.05a54.13,54.13,0,0,1,8.59,12Z" transform="translate(-37.23 -33.4)"/></svg>